# xmcd
#
# Track frame offsets:
#	150
#	23890
#	50255
#	77572
#	92430
#	122802
#	162480
#	200615
#
# Disc length: 3071 seconds
#
# Revision: 0
# Processed by: cddbd v1.5.2PL0 Copyright (c) Steve Scherf et al.
# Submitted via: EasyCDDAExtractor 16.0.6.1
#
DISCID=5e0bfd08
DTITLE=Παπά Ειρήνη - Ωδές-Ειρήνη Παπά
DYEAR=1979
DGENRE=Ηλεκτρονική
TTITLE0=Παπά Ειρήνη-χορωδία - Σαράντα παλληκάρια [Βαγγέλης Παπαθανασίου]
TTITLE1=Παπά Ειρήνη - Νεραντζούλα [Βαγγέλης Παπαθανασίου]
TTITLE2=Ἀνευ ερμηνευτού - Χορός της φωτιάς [σύνθ. Βαγγέλης Παπαθανασίου]
TTITLE3=Παπά Ειρήνη - Οι Κολοκοτρωναίοι [Βαγγέλης Παπαθανασίου]
TTITLE4=Παπά Ειρήνη - Το ποτάμι [Βαγγέλης Παπαθανασίου]
TTITLE5=Άνευ ερμηνευτού - Οι ρίζες [σύνθ. Βαγγέλης Παπαθανασίου]
TTITLE6=Παπά Ειρήνη - Μοιρολόϊ [Βαγγέλης Παπαθανασίου]
TTITLE7=Παπά Ειρήνη - Ο Μενούσης [Βαγγέλης Παπαθανασίου]
EXTD=
EXTT0=
EXTT1=
EXTT2=
EXTT3=
EXTT4=
EXTT5=
EXTT6=
EXTT7=
PLAYORDER=
